<?xml version="1.0" standalone="no"?>
<!DOCTYPE svg PUBLIC "-//W3C//DTD SVG 20010904//EN"
 "http://www.w3.org/TR/2001/REC-SVG-20010904/DTD/svg10.dtd">
<svg version="1.0" xmlns="http://www.w3.org/2000/svg"
 width="1920.000000pt" height="1920.000000pt" viewBox="0 0 1920.000000 1920.000000"
 preserveAspectRatio="xMidYMid meet">
<metadata>
Created by potrace 1.14, written by Peter Selinger 2001-2017
</metadata>
<g transform="translate(0.000000,1920.000000) scale(0.100000,-0.100000)"
fill="#000000" stroke="none">
<path d="M3945 19070 c-9 -64 -11 -77 -20 -149 -4 -30 -8 -62 -10 -71 -2 -9
-6 -41 -10 -71 -3 -30 -8 -65 -10 -79 -4 -26 -11 -82 -20 -152 -10 -79 -16
-123 -20 -148 -2 -14 -6 -43 -9 -65 -11 -88 -17 -131 -21 -155 -2 -14 -6 -44
-9 -67 -3 -24 -9 -62 -12 -85 -3 -24 -7 -54 -9 -68 -2 -14 -7 -50 -10 -80 -3
-30 -7 -62 -10 -70 -2 -8 -6 -40 -10 -71 -3 -31 -7 -65 -9 -76 -3 -11 -7 -44
-10 -74 -3 -30 -8 -63 -10 -74 -2 -11 -7 -47 -11 -80 -4 -33 -9 -69 -10 -80
-2 -11 -6 -40 -9 -65 -7 -51 -16 -113 -21 -150 -2 -14 -7 -49 -10 -79 -4 -30
-8 -61 -10 -70 -1 -9 -6 -43 -10 -76 -4 -33 -9 -69 -10 -80 -2 -11 -8 -58 -15
-105 -6 -47 -13 -96 -15 -110 -2 -14 -7 -49 -10 -79 -4 -30 -8 -61 -10 -70 -1
-9 -6 -41 -9 -72 -4 -31 -8 -65 -10 -75 -2 -11 -7 -46 -10 -79 -4 -33 -9 -67
-11 -75 -2 -8 -7 -42 -11 -75 -3 -33 -8 -69 -9 -80 -2 -11 -6 -42 -10 -70 -3
-27 -8 -66 -11 -85 -7 -50 -12 -89 -19 -140 -11 -93 -14 -100 -41 -90 -22 9
-26 5 -64 -76 -22 -47 -40 -87 -40 -89 0 -3 -11 -28 -24 -57 -36 -80 -86 -215
-86 -232 0 -22 -18 -30 -80 -32 -101 -3 -178 -15 -300 -48 -58 -16 -189 -75
-260 -117 -119 -70 -284 -229 -359 -343 -143 -219 -202 -421 -195 -671 1 -71
5 -142 8 -157 3 -16 8 -39 11 -53 12 -61 16 -75 34 -133 11 -34 38 -98 59
-142 l39 -80 -33 -29 c-83 -74 -86 -161 -7 -237 21 -20 38 -46 39 -58 6 -79
20 -111 78 -179 86 -101 114 -126 158 -137 24 -6 63 -20 88 -32 95 -43 223 -7
327 92 l44 42 60 -11 c164 -33 314 -34 489 -5 110 18 289 95 415 180 79 52 84
54 166 59 92 5 192 13 282 20 52 5 82 7 232 21 28 2 75 7 105 10 30 3 71 8 90
10 67 6 135 14 160 18 14 3 48 7 75 11 28 3 77 10 110 15 54 8 79 12 165 25
14 3 36 7 50 9 13 3 42 8 65 11 22 3 48 8 57 11 9 3 27 7 40 9 13 3 47 10 75
16 29 5 56 11 60 11 5 0 18 4 31 9 13 5 37 11 53 14 37 7 212 62 257 81 17 8
47 20 65 28 17 8 55 17 82 20 49 6 79 10 140 21 17 2 44 7 60 9 17 3 41 8 55
11 14 3 41 8 60 11 33 4 82 14 105 20 6 2 24 6 40 9 17 3 66 15 110 26 44 12
87 22 95 24 36 7 188 60 238 82 31 13 75 38 99 56 38 27 53 31 126 35 104 5
166 -16 211 -71 30 -37 30 -41 32 -155 2 -115 11 -237 19 -277 3 -11 7 -31 9
-45 10 -62 40 -158 63 -203 22 -45 25 -65 28 -181 4 -159 16 -327 30 -446 2
-19 7 -60 10 -90 6 -56 31 -215 40 -260 3 -14 7 -36 10 -50 3 -14 7 -36 10
-50 3 -14 8 -36 11 -50 3 -14 10 -43 16 -65 5 -22 11 -47 13 -55 8 -40 60
-211 77 -255 11 -27 24 -59 28 -70 4 -11 22 -51 40 -90 30 -64 53 -132 65
-195 3 -14 7 -36 10 -50 3 -14 8 -41 11 -60 3 -19 7 -46 9 -60 3 -14 7 -47 10
-75 4 -27 8 -63 10 -80 24 -184 24 -565 1 -780 -9 -80 -18 -145 -26 -190 -8
-46 -12 -73 -26 -195 -3 -25 -7 -58 -9 -75 -27 -206 -27 -1001 0 -1220 2 -16
6 -66 10 -110 4 -44 9 -88 11 -98 2 -10 6 -45 9 -78 4 -33 8 -70 11 -82 2 -12
7 -42 9 -67 3 -25 8 -52 10 -60 2 -8 7 -35 10 -60 3 -25 8 -52 10 -60 2 -8 7
-35 10 -60 4 -24 8 -47 10 -50 2 -3 6 -26 10 -50 9 -65 81 -369 111 -475 14
-49 27 -97 29 -105 2 -8 12 -44 24 -79 12 -35 28 -107 36 -160 9 -53 18 -109
21 -126 2 -16 6 -41 9 -55 3 -14 7 -41 11 -60 20 -118 33 -190 40 -212 5 -17
10 -42 19 -90 3 -15 19 -78 35 -140 17 -62 32 -121 35 -131 28 -114 118 -327
171 -400 23 -32 38 -65 40 -91 11 -100 39 -248 53 -275 5 -9 9 -19 10 -24 4
-36 29 -102 72 -192 45 -91 96 -163 168 -235 l65 -65 48 -185 c26 -102 50
-194 52 -205 5 -21 12 -50 21 -85 12 -48 16 -67 21 -90 3 -14 14 -61 25 -105
12 -44 22 -87 24 -95 2 -8 15 -67 30 -130 14 -63 28 -125 31 -137 2 -12 9 -34
14 -48 5 -14 8 -25 5 -25 -2 0 1 -15 6 -32 5 -18 12 -48 15 -67 3 -19 10 -45
15 -58 5 -13 7 -23 4 -23 -2 0 1 -15 6 -32 5 -18 12 -46 15 -63 2 -16 7 -38
10 -47 3 -9 7 -27 9 -40 3 -13 7 -34 10 -48 3 -14 8 -36 11 -50 3 -14 7 -36
10 -50 3 -14 17 -81 30 -150 14 -69 27 -132 29 -141 2 -9 6 -32 9 -50 3 -19 8
-44 10 -55 2 -12 7 -39 10 -60 6 -37 14 -84 22 -129 2 -11 7 -40 10 -65 3 -25
7 -56 9 -70 21 -123 24 -266 8 -320 -13 -41 -69 -257 -80 -305 -2 -11 -5 -24
-7 -30 -11 -38 -56 -225 -61 -255 -3 -14 -9 -40 -14 -57 -5 -18 -8 -33 -5 -33
3 0 1 -8 -5 -17 -5 -10 -11 -36 -15 -58 -3 -22 -8 -51 -11 -65 -31 -154 -44
-242 -49 -344 -3 -57 16 -114 52 -156 6 -8 34 -43 60 -76 111 -143 249 -250
335 -260 75 -10 149 39 214 142 29 44 85 174 76 174 -3 0 -1 6 4 13 11 13 48
149 57 207 3 19 8 46 11 60 3 14 8 81 10 150 4 137 11 198 30 300 3 14 7 48
10 75 3 28 8 57 10 65 2 8 7 33 10 55 3 23 8 52 11 65 2 14 6 36 9 50 2 14 8
45 14 70 5 25 13 61 16 80 9 49 9 49 28 111 9 31 24 71 32 90 14 32 15 25 10
-106 -4 -77 -8 -167 -10 -200 -2 -33 -7 -112 -10 -175 -3 -63 -8 -140 -10
-170 -2 -30 -7 -95 -10 -145 -9 -134 -15 -186 -25 -225 -18 -70 -22 -97 -25
-200 -4 -108 -1 -123 69 -315 32 -91 104 -183 165 -215 51 -26 141 -21 200 10
56 30 167 141 244 244 62 84 137 230 158 306 18 65 15 492 -6 810 -2 30 -7 98
-10 150 -7 109 -11 145 -21 215 -4 28 -7 66 -6 85 0 19 3 100 6 180 4 112 2
154 -9 185 -18 50 -18 55 -1 55 18 0 75 56 86 86 14 37 12 99 -4 139 -13 31
-13 38 4 73 27 55 37 136 27 202 -11 70 -12 97 -4 195 26 319 28 948 2 1161
-1 16 -6 60 -10 97 -3 37 -8 76 -10 85 -2 15 -6 41 -20 142 -3 22 -36 175 -52
240 -9 35 -8 69 2 110 4 19 9 134 10 255 2 194 8 360 20 505 2 25 7 113 10
195 4 83 9 175 10 205 13 240 20 620 20 1100 0 572 -7 828 -30 1135 -4 55 -9
116 -10 135 -4 64 -17 205 -20 222 -2 9 -7 48 -10 85 -4 37 -9 75 -10 84 -2 9
-6 40 -10 69 -4 29 -9 62 -11 74 -2 11 -6 36 -9 56 -3 20 -7 47 -10 60 -3 13
-7 42 -11 65 -3 22 -12 69 -21 105 -8 36 -17 73 -19 83 -2 9 -6 27 -10 40 -3
12 -7 33 -10 46 -8 38 -75 243 -88 271 -7 14 -20 40 -29 58 -9 19 -17 38 -17
44 0 5 -7 26 -16 46 -28 63 -32 75 -62 172 -34 109 -76 270 -91 350 -6 30 -13
66 -16 80 -3 14 -8 49 -11 79 -3 30 -8 64 -10 75 -2 12 -7 82 -10 156 -6 134
-6 136 35 290 22 85 42 166 45 180 3 14 7 34 10 45 5 18 29 124 42 180 2 11 7
33 10 49 2 16 6 32 8 35 2 3 7 22 10 41 3 19 14 79 25 132 11 53 23 118 27
145 3 26 7 50 9 53 2 3 6 30 10 60 3 30 8 66 10 80 2 14 7 60 10 103 4 43 15
98 25 122 11 25 24 64 31 87 6 24 14 52 17 63 3 11 6 112 7 225 3 258 16 421
41 485 4 11 10 22 14 25 27 22 138 241 194 385 35 87 63 115 140 137 45 13
196 16 264 5 23 -4 61 -9 85 -12 23 -3 58 -8 77 -10 19 -3 55 -7 80 -9 25 -3
77 -8 115 -12 39 -3 84 -8 100 -10 268 -26 855 -26 991 0 12 3 39 7 60 10 22
4 55 11 74 16 19 5 38 10 42 10 4 1 36 12 70 26 65 25 73 25 143 -7 69 -32
408 -126 515 -144 19 -3 42 -8 50 -10 8 -2 31 -6 50 -9 19 -3 45 -8 56 -10 27
-6 76 -13 139 -21 28 -3 64 -8 80 -10 17 -2 68 -7 115 -10 47 -4 96 -9 110
-11 14 -3 200 -7 415 -9 l390 -4 17 -23 c10 -13 22 -28 26 -33 5 -6 13 -17 18
-26 40 -70 197 -230 299 -306 99 -74 262 -152 354 -169 14 -3 28 -7 31 -9 36
-22 268 -23 368 -1 73 16 73 16 105 -8 47 -35 117 -66 148 -66 18 0 34 9 46
25 13 19 29 26 64 29 58 6 80 19 105 64 13 25 29 39 51 44 17 5 43 22 57 39
25 29 29 44 28 100 0 21 6 28 30 35 70 20 91 104 56 229 -22 77 -26 148 -11
167 14 19 46 137 59 218 3 19 8 46 11 60 12 61 11 339 -2 425 -25 157 -32 186
-76 318 -26 80 -100 243 -131 292 -75 116 -97 147 -137 195 -83 98 -145 155
-278 256 -23 17 -116 68 -194 105 -16 7 -85 27 -104 30 -5 0 -17 5 -25 9 -15
8 -97 21 -158 25 -18 1 -34 4 -36 6 -1 2 -10 51 -19 109 -10 58 -19 115 -22
128 -2 13 -9 59 -16 102 -9 62 -17 85 -36 105 -14 14 -31 25 -38 25 -20 0 -33
22 -40 70 -9 68 -15 102 -20 130 -3 14 -7 43 -10 65 -2 22 -7 51 -9 65 -3 14
-8 45 -11 70 -3 25 -8 52 -10 60 -2 8 -7 35 -10 60 -2 25 -7 54 -9 66 -2 12
-7 45 -11 75 -4 30 -8 56 -10 59 -2 3 -6 32 -9 65 -4 33 -9 67 -11 75 -2 8 -7
35 -10 60 -3 25 -8 52 -10 60 -2 8 -7 35 -10 60 -2 25 -7 54 -9 66 -2 12 -7
45 -11 75 -4 30 -8 56 -10 59 -2 3 -7 35 -10 70 -4 36 -8 67 -10 70 -2 3 -6
30 -10 60 -4 30 -8 57 -10 60 -2 3 -6 32 -10 64 -3 33 -8 62 -9 65 -2 3 -7 33
-11 66 -3 32 -8 62 -10 65 -2 3 -7 35 -10 70 -4 36 -8 67 -10 70 -2 3 -6 26
-9 50 -4 25 -9 56 -11 70 -3 14 -7 43 -10 65 -2 22 -7 51 -9 65 -3 14 -8 45
-11 70 -3 25 -8 52 -10 60 -2 8 -7 35 -10 60 -2 25 -7 54 -9 65 -2 11 -7 43
-10 70 -4 28 -9 57 -11 65 -2 8 -7 35 -10 60 -2 25 -7 54 -9 66 -2 12 -7 45
-11 75 -4 30 -8 56 -10 59 -2 3 -6 33 -10 65 -3 33 -9 76 -13 95 l-8 35 -159
1 c-88 0 -165 -1 -171 -3 -8 -3 -9 -18 -2 -51 5 -26 11 -63 14 -82 3 -19 7
-47 10 -61 2 -15 6 -44 9 -65 3 -22 7 -48 9 -59 3 -18 10 -57 22 -137 2 -16 6
-41 9 -58 10 -60 14 -86 20 -130 3 -25 10 -70 15 -100 5 -30 12 -71 15 -90 3
-19 8 -46 10 -60 3 -14 7 -45 10 -70 3 -25 7 -56 10 -70 3 -14 7 -41 10 -60 3
-19 8 -47 10 -62 9 -55 14 -84 20 -123 3 -23 8 -52 10 -65 3 -14 8 -45 11 -70
3 -25 8 -54 10 -65 2 -10 6 -37 9 -60 4 -22 9 -53 11 -70 3 -16 7 -39 9 -50 8
-61 18 -119 30 -195 8 -47 17 -103 20 -125 2 -22 7 -51 9 -65 3 -14 8 -43 11
-65 3 -23 7 -52 10 -65 5 -24 14 -86 20 -125 5 -35 16 -109 21 -140 3 -16 7
-43 10 -60 2 -16 6 -41 9 -55 3 -14 7 -41 9 -60 6 -44 14 -99 26 -170 17 -102
19 -115 25 -155 4 -22 8 -52 11 -67 3 -22 0 -28 -13 -28 -27 -1 -53 -25 -49
-46 2 -10 7 -39 10 -64 3 -25 8 -54 10 -65 5 -27 14 -90 21 -145 6 -41 8 -60
20 -130 20 -119 21 -114 -32 -153 -183 -135 -339 -388 -397 -647 -37 -163 -50
-320 -36 -457 3 -35 5 -63 4 -63 -1 0 -30 9 -65 19 -35 10 -77 22 -94 27 -16
4 -32 8 -35 9 -29 9 -99 28 -112 31 -10 2 -26 6 -36 8 -9 2 -37 9 -62 16 -25
7 -52 14 -60 15 -8 2 -67 15 -130 30 -63 14 -128 28 -145 31 -16 2 -37 7 -45
9 -8 2 -31 6 -50 9 -33 5 -46 8 -110 21 -14 3 -45 7 -69 10 -23 3 -55 7 -70 9
-41 7 -102 15 -156 21 -27 3 -70 7 -95 10 -116 13 -209 16 -375 15 -99 -1
-216 -2 -260 -3 -44 0 -91 3 -105 7 -14 3 -38 9 -54 12 -16 2 -32 6 -35 8 -3
2 -22 7 -41 10 -19 3 -46 8 -60 11 -14 3 -40 8 -59 11 -18 3 -43 8 -55 10 -11
2 -37 7 -56 10 -19 2 -57 9 -85 14 -52 9 -105 17 -190 26 -27 3 -63 7 -80 10
-16 2 -106 7 -200 11 -186 6 -161 0 -291 80 -65 41 -324 159 -367 167 -7 2
-37 10 -67 19 -30 9 -68 19 -85 22 -16 2 -41 7 -55 10 -65 15 -136 20 -260 19
-154 0 -261 -19 -385 -67 -87 -33 -97 -34 -165 -17 -49 13 -69 18 -101 25 -11
2 -28 6 -37 9 -9 3 -30 8 -47 11 -16 2 -41 7 -55 10 -55 12 -126 26 -150 30
-14 2 -42 6 -62 9 -21 3 -55 8 -75 11 -66 10 -117 60 -146 145 -15 42 -16 158
-3 230 2 14 7 41 11 60 21 122 86 270 118 270 17 0 60 47 80 85 18 37 34 94
42 158 3 26 10 58 15 72 5 14 8 25 5 25 -2 0 3 16 11 36 8 20 18 74 21 120 5
68 3 88 -11 109 -9 14 -23 25 -30 25 -11 0 -13 27 -13 133 1 123 -6 238 -18
297 -2 13 -7 42 -10 63 -11 69 -64 218 -100 277 -62 103 -158 181 -249 204
-15 4 -51 24 -80 45 -127 94 -291 142 -463 136 -54 -2 -111 -7 -128 -10 -16
-3 -43 -8 -60 -11 -99 -18 -264 -87 -354 -149 -17 -12 -131 -125 -146 -146
-25 -33 -73 -135 -81 -169 -3 -14 -8 -36 -12 -50 -17 -61 -3 -434 18 -500 29
-91 38 -156 39 -270 0 -58 2 -114 5 -125 2 -11 7 -42 10 -69 9 -67 78 -312
113 -406 3 -8 7 -19 9 -25 7 -28 44 -135 58 -171 23 -57 66 -87 142 -98 16 -3
19 -11 19 -52 0 -52 -15 -136 -35 -194 -21 -63 -72 -160 -83 -161 -7 0 -21 -2
-32 -4 -35 -7 -139 -25 -170 -30 -33 -5 -94 -17 -110 -20 -5 -2 -23 -5 -40 -8
-16 -3 -41 -8 -55 -12 -14 -3 -36 -7 -50 -10 -14 -3 -35 -7 -47 -10 -13 -3
-33 -7 -45 -10 -13 -2 -36 -8 -53 -12 -16 -4 -32 -7 -35 -8 -3 0 -28 -7 -57
-14 -47 -11 -74 -11 -143 4 -28 6 -214 7 -245 1 -11 -2 -51 -9 -90 -16 -38 -7
-104 -26 -145 -42 -82 -32 -223 -106 -228 -119 -2 -5 -10 -9 -18 -9 -8 0 -14
-4 -14 -8 0 -5 -10 -14 -23 -19 -13 -6 -73 -58 -133 -116 -108 -103 -125 -114
-214 -132 -8 -2 -58 -15 -110 -29 -52 -15 -102 -28 -111 -31 -156 -36 -493
-171 -569 -227 -24 -17 -29 -17 -75 -3 -55 17 -159 29 -245 29 -80 0 -256 -17
-310 -30 -14 -3 -34 -8 -45 -10 -131 -25 -425 -118 -550 -173 -11 -5 -38 -16
-60 -25 -22 -10 -48 -21 -58 -27 -10 -5 -29 -14 -42 -19 -23 -9 -23 -8 -18 43
48 433 -154 865 -514 1102 -24 15 -41 30 -39 34 2 3 7 42 11 86 4 44 8 94 10
110 2 17 7 62 10 100 3 39 8 81 10 95 10 70 15 170 8 169 -4 -1 -23 -1 -42 0
l-33 1 6 48 c3 26 8 58 10 72 13 69 32 182 41 244 4 21 8 48 11 59 2 12 6 39
9 62 3 22 8 47 10 55 2 8 7 35 10 60 7 49 12 82 20 120 3 14 8 45 11 70 3 25
8 54 10 65 4 18 58 344 70 418 10 64 21 131 38 227 8 46 16 95 22 135 3 22 8
49 10 60 7 41 13 81 18 115 3 19 8 46 11 60 3 14 8 43 11 65 8 53 11 74 18
113 16 86 21 115 31 186 6 47 14 92 20 126 3 14 7 39 9 55 3 17 12 73 21 125
9 52 18 109 21 125 2 17 6 41 9 55 3 14 7 41 10 60 3 19 10 60 15 90 9 54 13
78 25 150 3 19 7 46 10 60 4 23 8 45 20 120 2 14 7 45 10 70 4 24 8 47 10 50
1 3 6 25 9 50 3 25 8 56 11 70 3 14 8 45 11 70 3 25 8 48 11 53 6 10 12 9
-214 11 l-201 1 -7 -55z m12130 -3735 c76 -17 184 -67 244 -112 66 -49 142
-118 177 -159 46 -55 124 -161 124 -168 0 -2 15 -30 33 -63 59 -105 117 -269
142 -403 25 -135 26 -358 0 -485 -2 -11 -4 -24 -4 -29 -1 -5 -7 -4 -14 2 -39
33 -114 46 -252 47 -77 0 -153 -3 -170 -7 -82 -18 -112 -18 -165 -3 -85 25
-124 36 -135 38 -5 1 -14 5 -20 9 -9 5 -69 20 -80 19 -2 0 -20 6 -40 15 -19 8
-35 12 -35 10 0 -3 -15 1 -32 9 -18 7 -37 14 -43 14 -5 1 -35 8 -65 17 -30 9
-63 18 -73 20 -10 1 -32 8 -50 13 -34 11 -175 52 -192 56 -5 1 -30 7 -55 14
-25 8 -50 14 -57 15 -7 1 -14 4 -17 7 -11 11 -18 89 -21 244 -4 165 1 211 39
365 8 32 50 137 67 167 50 88 139 206 139 183 0 -5 12 -21 28 -35 24 -24 33
-26 82 -22 30 3 84 15 120 27 36 12 72 23 80 25 73 14 130 38 136 58 15 42 22
78 23 105 1 25 8 25 86 7z m-12899 -510 c4 -68 16 -80 106 -104 45 -13 90 -24
98 -26 8 -2 35 -8 60 -15 25 -7 52 -14 60 -16 8 -1 58 -15 110 -29 l95 -26 26
30 26 31 62 -61 c66 -65 144 -174 178 -249 19 -43 36 -85 33 -85 -1 0 4 -13
11 -30 26 -67 38 -162 35 -285 -2 -69 -7 -135 -10 -147 -3 -13 -8 -31 -10 -40
-8 -36 -27 -76 -32 -70 -3 3 -20 1 -37 -4 -18 -5 -43 -11 -57 -14 -14 -3 -36
-7 -50 -10 -14 -3 -38 -8 -55 -10 -16 -3 -37 -8 -45 -10 -8 -2 -31 -7 -50 -10
-19 -3 -66 -12 -105 -20 -38 -7 -106 -16 -150 -20 -94 -7 -154 -14 -175 -20
-8 -2 -30 -7 -48 -10 -18 -3 -52 -12 -76 -20 -33 -11 -56 -13 -92 -6 -74 14
-157 26 -264 38 -87 10 -294 10 -351 0 l-46 -8 -27 63 c-16 35 -29 70 -31 79
-2 9 -8 34 -14 55 -23 80 -31 224 -19 324 13 100 67 258 110 322 10 14 18 31
18 37 0 6 4 11 8 11 4 0 16 15 27 32 31 54 146 162 223 212 111 72 228 120
322 133 25 3 47 7 50 10 2 2 22 3 44 1 37 -3 41 -5 42 -33z m12608 -1276 c90
-19 115 -27 196 -63 36 -16 54 -35 85 -91 15 -27 34 -58 43 -69 16 -18 15 -18
-26 -12 -45 6 -116 23 -142 33 -8 4 -17 7 -20 8 -20 6 -106 51 -108 58 -2 4
-8 7 -14 7 -13 0 -81 53 -143 112 l-50 48 40 -5 c22 -3 84 -15 139 -26z
m-5839 -9139 c21 -58 44 -116 51 -130 7 -14 29 -61 50 -104 l37 -80 3 -415 c1
-229 5 -442 8 -473 3 -32 2 -58 -2 -58 -4 0 -18 12 -31 25 -13 14 -29 25 -35
25 -8 0 -13 19 -15 53 -1 28 -4 70 -6 92 -1 22 -6 83 -9 135 -6 89 -11 152
-21 260 -3 25 -7 81 -10 125 -4 44 -8 91 -10 105 -2 14 -7 63 -10 108 -4 46
-8 93 -10 104 -3 11 -7 55 -11 96 -3 42 -7 83 -9 91 -2 9 -6 45 -10 81 -4 36
-9 70 -12 75 -4 7 -3 7 4 0 5 -5 27 -57 48 -115z m229 -1690 c14 -104 45 -216
71 -256 l13 -21 -64 18 c-71 20 -68 19 -90 19 -13 0 -12 6 7 36 25 41 31 134
10 172 -10 18 -8 29 11 61 26 45 33 40 42 -29z"/>
</g>
</svg>
